<?xml version="1.0" standalone="no"?>
<!DOCTYPE svg PUBLIC "-//W3C//DTD SVG 20010904//EN"
 "http://www.w3.org/TR/2001/REC-SVG-20010904/DTD/svg10.dtd">
<svg version="1.0" xmlns="http://www.w3.org/2000/svg"
 width="350.000000pt" height="350.000000pt" viewBox="0 0 350.000000 350.000000"
 preserveAspectRatio="xMidYMid meet">
<metadata>
Created by potrace 1.14, written by Peter Selinger 2001-2017
</metadata>
<g transform="translate(0.000000,350.000000) scale(0.100000,-0.100000)"
fill="#000000" stroke="none">
<path d="M1495 3479 c-22 -4 -53 -9 -70 -12 -16 -3 -50 -10 -75 -17 -42 -11
-52 -14 -99 -24 -11 -3 -29 -10 -40 -16 -12 -6 -21 -9 -21 -6 0 13 -249 -100
-334 -152 -467 -283 -791 -785 -844 -1306 -21 -210 -3 -449 47 -638 83 -309
234 -569 466 -803 206 -207 482 -364 780 -445 44 -12 89 -23 100 -25 11 -1 41
-6 65 -9 25 -3 56 -9 70 -12 43 -9 332 -13 390 -4 30 4 75 11 100 15 74 10
240 54 315 82 66 24 245 109 290 136 74 45 142 93 211 148 77 63 99 83 179
168 l39 41 -529 530 -530 530 420 419 419 420 23 -34 c36 -53 71 -122 110
-215 30 -72 72 -199 71 -215 0 -3 6 -38 12 -77 20 -116 17 -334 -5 -453 -8
-39 -31 -124 -56 -202 l-20 -61 158 -157 158 -156 30 64 c16 36 35 78 42 94
15 34 73 210 79 238 2 11 13 61 23 110 16 77 19 124 16 325 -3 256 -5 270 -40
410 -91 361 -294 685 -578 922 l-58 48 -499 -497 c-274 -274 -509 -508 -523
-521 l-25 -23 0 258 c0 142 -1 264 -1 271 -1 9 -55 12 -236 12 l-235 0 -1 -22
c0 -13 0 -492 0 -1066 l0 -1043 -22 6 c-51 15 -174 78 -250 129 -141 94 -285
236 -365 360 -15 22 -31 44 -37 48 -5 4 -6 8 -1 8 5 0 2 8 -6 18 -21 23 -73
127 -102 206 -23 60 -42 130 -62 226 -4 19 -9 42 -12 50 -2 8 -5 81 -7 161 -3
147 2 191 32 329 9 41 17 77 18 80 2 16 54 145 81 201 35 72 109 191 146 235
181 216 357 343 603 434 33 12 67 23 75 25 8 2 33 8 55 14 22 5 54 12 70 15
17 3 46 8 65 11 67 12 266 14 330 4 36 -6 83 -13 105 -16 22 -3 60 -12 85 -19
l45 -14 162 164 c160 162 167 171 123 180 -3 1 -30 11 -60 23 -70 29 -215 70
-271 78 -24 3 -73 10 -107 16 -72 11 -426 10 -487 -2z m914 -2881 c-16 -10
-34 -18 -39 -18 -6 0 -10 -4 -10 -10 0 -5 -6 -10 -14 -10 -8 0 -30 -9 -48 -19
-88 -51 -323 -109 -456 -113 l-77 -3 -2 415 c-1 228 0 421 3 428 2 8 145 -127
338 -319 l334 -333 -29 -18z"/>
</g>
</svg>
